# xmcd
#
# Track frame offsets:
#	150
#	16224
#	29430
#	48718
#	62305
#	86372
#	106715
#	120275
#	137906
#	164091
#	197270
#	219589
#	239090
#	271660
#	291398
#	312349
#
# Disc length: 4430 seconds
#
# Revision: 1
# Processed by: cddbd v1.5.1PL2 Copyright (c) Steve Scherf et al.
# Submitted via: audiograbber 1.83.01
#
DISCID=de114c10
DTITLE=The New Hinsons - Light Up The Night
DYEAR=1998
DGENRE=Southern Gospel
TTITLE0=Little Store Front Church
TTITLE1=He's Got A Miracle For You
TTITLE2=Speak The Word Lord
TTITLE3=He Made A Believer Out Of Me
TTITLE4=Feed My Sheep
TTITLE5=Clavary Painted A Picture Of Grace
TTITLE6=Pickin' Up Speed
TTITLE7=I Will Shine
TTITLE8=Shoutin' Shoes
TTITLE9=Sin Died Here
TTITLE10=Old Ship Of Zion
TTITLE11=Hallelujah Meeting
TTITLE12=If There Had Been No Calvary
TTITLE13=Oasis
TTITLE14=The Lighthouse
TTITLE15=I Never Shall Forget The Day
EXTD=
EXTT0=
EXTT1=
EXTT2=
EXTT3=
EXTT4=
EXTT5=
EXTT6=
EXTT7=
EXTT8=
EXTT9=
EXTT10=
EXTT11=
EXTT12=
EXTT13=
EXTT14=
EXTT15=
PLAYORDER=
